<svg width="14" height="10" viewBox="0 0 14 10" fill="none" xmlns="http://www.w3.org/2000/svg">
<path fill-rule="evenodd" clip-rule="evenodd" d="M0.333984 5.00017C0.333984 4.53993 0.70708 4.16684 1.16732 4.16684H12.834C13.2942 4.16684 13.6673 4.53993 13.6673 5.00017C13.6673 5.46041 13.2942 5.8335 12.834 5.8335H1.16732C0.70708 5.8335 0.333984 5.46041 0.333984 5.00017Z" fill="#666276"/>
<path fill-rule="evenodd" clip-rule="evenodd" d="M13.4232 4.41091C13.7487 4.73635 13.7487 5.26399 13.4232 5.58943L10.0899 8.92276C9.76446 9.2482 9.23682 9.2482 8.91138 8.92276C8.58594 8.59732 8.58594 8.06969 8.91138 7.74425L12.2447 4.41092C12.5701 4.08548 13.0978 4.08548 13.4232 4.41091Z" fill="#666276"/>
<path fill-rule="evenodd" clip-rule="evenodd" d="M8.91138 1.07757C9.23682 0.752137 9.76446 0.752137 10.0899 1.07757L13.4232 4.41091C13.7487 4.73635 13.7487 5.26399 13.4232 5.58943C13.0978 5.91486 12.5701 5.91486 12.2447 5.58942L8.91138 2.25608C8.58594 1.93065 8.58594 1.40301 8.91138 1.07757Z" fill="#666276"/>
</svg>
