<svg width="12" height="15" viewBox="0 0 12 15" fill="none" xmlns="http://www.w3.org/2000/svg">
<path fill-rule="evenodd" clip-rule="evenodd" d="M2 3.50016C1.63181 3.50016 1.33333 3.79863 1.33333 4.16682V12.1668C1.33333 12.535 1.63181 12.8335 2 12.8335H10C10.3682 12.8335 10.6667 12.535 10.6667 12.1668V4.16682C10.6667 3.79863 10.3682 3.50016 10 3.50016H2ZM0 4.16682C0 3.06225 0.895431 2.16682 2 2.16682H10C11.1046 2.16682 12 3.06225 12 4.16682V12.1668C12 13.2714 11.1046 14.1668 10 14.1668H2C0.895431 14.1668 0 13.2714 0 12.1668V4.16682Z" fill="white"/>
<path fill-rule="evenodd" clip-rule="evenodd" d="M8.66667 0.833496C9.03486 0.833496 9.33333 1.13197 9.33333 1.50016V4.16683C9.33333 4.53502 9.03486 4.8335 8.66667 4.8335C8.29848 4.8335 8 4.53502 8 4.16683V1.50016C8 1.13197 8.29848 0.833496 8.66667 0.833496Z" fill="white"/>
<path fill-rule="evenodd" clip-rule="evenodd" d="M3.33336 0.833496C3.70155 0.833496 4.00002 1.13197 4.00002 1.50016V4.16683C4.00002 4.53502 3.70155 4.8335 3.33336 4.8335C2.96517 4.8335 2.66669 4.53502 2.66669 4.16683V1.50016C2.66669 1.13197 2.96517 0.833496 3.33336 0.833496Z" fill="white"/>
<path fill-rule="evenodd" clip-rule="evenodd" d="M0 6.83349C0 6.4653 0.298477 6.16682 0.666667 6.16682H11.3333C11.7015 6.16682 12 6.4653 12 6.83349C12 7.20168 11.7015 7.50016 11.3333 7.50016H0.666667C0.298477 7.50016 0 7.20168 0 6.83349Z" fill="white"/>
</svg>
