<svg width="14" height="15" viewBox="0 0 14 15" fill="none" xmlns="http://www.w3.org/2000/svg">
<path fill-rule="evenodd" clip-rule="evenodd" d="M7.00065 2.16683C4.05513 2.16683 1.66732 4.55464 1.66732 7.50016C1.66732 10.4457 4.05513 12.8335 7.00065 12.8335C9.94617 12.8335 12.334 10.4457 12.334 7.50016C12.334 4.55464 9.94617 2.16683 7.00065 2.16683ZM0.333984 7.50016C0.333984 3.81826 3.31875 0.833496 7.00065 0.833496C10.6826 0.833496 13.6673 3.81826 13.6673 7.50016C13.6673 11.1821 10.6826 14.1668 7.00065 14.1668C3.31875 14.1668 0.333984 11.1821 0.333984 7.50016Z" fill="white"/>
<path fill-rule="evenodd" clip-rule="evenodd" d="M7.00065 3.50026C7.36884 3.50026 7.66732 3.79874 7.66732 4.16693V7.22412L9.47206 9.02886C9.73241 9.28921 9.73241 9.71132 9.47206 9.97167C9.21171 10.232 8.7896 10.232 8.52925 9.97167L6.52925 7.97167C6.40422 7.84664 6.33398 7.67707 6.33398 7.50026V4.16693C6.33398 3.79874 6.63246 3.50026 7.00065 3.50026Z" fill="white"/>
</svg>
