<svg width="14" height="12" viewBox="0 0 14 12" fill="none" xmlns="http://www.w3.org/2000/svg">
<path fill-rule="evenodd" clip-rule="evenodd" d="M11.0007 0.666504H3.00065C1.53398 0.666504 0.333984 1.8665 0.333984 3.33317V8.6665C0.333984 10.1332 1.53398 11.3332 3.00065 11.3332H11.0007C12.4673 11.3332 13.6673 10.1332 13.6673 8.6665V3.33317C13.6673 1.8665 12.4673 0.666504 11.0007 0.666504ZM1.66732 3.33317C1.66732 2.59984 2.26732 1.99984 3.00065 1.99984H11.0007C11.734 1.99984 12.334 2.59984 12.334 3.33317V3.99984H1.66732V3.33317ZM12.334 8.6665C12.334 9.39984 11.734 9.99984 11.0007 9.99984H3.00065C2.26732 9.99984 1.66732 9.39984 1.66732 8.6665V5.33317H12.334V8.6665ZM3.00065 7.99984C3.00065 7.59984 3.26732 7.33317 3.66732 7.33317C4.06732 7.33317 4.33398 7.59984 4.33398 7.99984C4.33398 8.39984 4.06732 8.6665 3.66732 8.6665C3.26732 8.6665 3.00065 8.39984 3.00065 7.99984ZM5.66732 7.99984C5.66732 7.59984 5.93398 7.33317 6.33398 7.33317H7.66732C8.06732 7.33317 8.33398 7.59984 8.33398 7.99984C8.33398 8.39984 8.06732 8.6665 7.66732 8.6665H6.33398C5.93398 8.6665 5.66732 8.39984 5.66732 7.99984Z" fill="#9691A4"/>
</svg>
