<svg xmlns="http://www.w3.org/2000/svg" width="20.656" height="20.656" viewBox="0 0 20.656 20.656">
  <g id="instagram" transform="translate(-1 -1)">
    <path id="Path_3828" data-name="Path 3828" d="M11.695,7a4.695,4.695,0,1,0,4.695,4.695A4.695,4.695,0,0,0,11.695,7ZM8.878,11.695a2.817,2.817,0,1,0,2.817-2.817A2.817,2.817,0,0,0,8.878,11.695Z" transform="translate(-0.366 -0.366)" fill-rule="evenodd"/>
    <path id="Path_3829" data-name="Path 3829" d="M17.939,5a.939.939,0,1,0,.939.939A.939.939,0,0,0,17.939,5Z" transform="translate(-0.977 -0.244)"/>
    <path id="Path_3830" data-name="Path 3830" d="M4.756,1A3.756,3.756,0,0,0,1,4.756V17.9a3.756,3.756,0,0,0,3.756,3.756H17.9A3.756,3.756,0,0,0,21.656,17.9V4.756A3.756,3.756,0,0,0,17.9,1ZM17.9,2.878H4.756A1.878,1.878,0,0,0,2.878,4.756V17.9a1.878,1.878,0,0,0,1.878,1.878H17.9A1.878,1.878,0,0,0,19.779,17.9V4.756A1.878,1.878,0,0,0,17.9,2.878Z" fill-rule="evenodd"/>
  </g>
</svg>
