<svg width="12" height="14" viewBox="0 0 12 14" fill="none" xmlns="http://www.w3.org/2000/svg">
<path fill-rule="evenodd" clip-rule="evenodd" d="M5.99999 4.99999C5.26361 4.99999 4.66665 5.59695 4.66665 6.33333C4.66665 7.06971 5.26361 7.66666 5.99999 7.66666C6.73636 7.66666 7.33332 7.06971 7.33332 6.33333C7.33332 5.59695 6.73636 4.99999 5.99999 4.99999ZM3.33332 6.33333C3.33332 4.86057 4.52723 3.66666 5.99999 3.66666C7.47274 3.66666 8.66665 4.86057 8.66665 6.33333C8.66665 7.80609 7.47274 8.99999 5.99999 8.99999C4.52723 8.99999 3.33332 7.80609 3.33332 6.33333Z" fill="#9691A4"/>
<path fill-rule="evenodd" clip-rule="evenodd" d="M6 1.66683C5.07703 1.66683 4.17479 1.94052 3.40737 2.45329C2.63994 2.96606 2.0418 3.69488 1.68859 4.54758C1.33537 5.40029 1.24294 6.33859 1.42299 7.24383C1.60303 8.14907 2.04746 8.98059 2.70009 9.63324L5.52917 12.4617C5.65417 12.5865 5.82364 12.6567 6.00034 12.6567C6.17703 12.6567 6.3465 12.5865 6.4715 12.4617L9.29992 9.63324C9.95253 8.98059 10.397 8.14906 10.577 7.24383C10.7571 6.33859 10.6646 5.40029 10.3114 4.54758C9.9582 3.69488 9.36006 2.96606 8.59264 2.45329C7.82521 1.94052 6.92297 1.66683 6 1.66683ZM10.2428 10.576C11.0818 9.7369 11.6532 8.6678 11.8847 7.50392C12.1162 6.34005 11.9974 5.13366 11.5432 4.03732C11.0891 2.94098 10.3201 2.00393 9.33339 1.34466C8.3467 0.685382 7.18668 0.333496 6 0.333496C4.81333 0.333496 3.6533 0.685382 2.66661 1.34466C1.67993 2.00393 0.91089 2.94098 0.456755 4.03732C0.00262022 5.13366 -0.116218 6.34005 0.115268 7.50392C0.346755 8.6678 0.918169 9.7369 1.75725 10.576L4.58665 13.4048C4.96167 13.7794 5.47025 13.99 6.00034 13.99C6.53042 13.99 7.03882 13.7796 7.41384 13.4049L10.2428 10.576Z" fill="#9691A4"/>
</svg>
