<svg xmlns="http://www.w3.org/2000/svg" width="12" height="13.656" viewBox="0 0 12 13.656">
  <g id="location-pin" transform="translate(0 -0.333)">
    <path id="Path_3820" data-name="Path 3820" d="M6,5A1.333,1.333,0,1,0,7.333,6.333,1.333,1.333,0,0,0,6,5ZM3.333,6.333A2.667,2.667,0,1,1,6,9,2.667,2.667,0,0,1,3.333,6.333Z" fill="#fd5631" fill-rule="evenodd"/>
    <path id="Path_3821" data-name="Path 3821" d="M6,1.667A4.667,4.667,0,0,0,2.7,9.633l2.829,2.828a.667.667,0,0,0,.942,0L9.3,9.633A4.667,4.667,0,0,0,6,1.667Zm4.243,8.909a6,6,0,1,0-8.486,0L4.587,13.4a2,2,0,0,0,2.827,0Z" fill="#fd5631" fill-rule="evenodd"/>
  </g>
</svg>
