<svg width="16" height="15" viewBox="0 0 16 15" fill="none" xmlns="http://www.w3.org/2000/svg">
<path fill-rule="evenodd" clip-rule="evenodd" d="M7.9959 0.667969C8.24966 0.667969 8.48142 0.812036 8.59372 1.03959L10.4959 4.89382L14.7488 5.51019C15.0001 5.54661 15.2089 5.72258 15.2873 5.96406C15.3657 6.20554 15.3002 6.47059 15.1182 6.64768L12.0363 9.64767L12.763 13.8839C12.8059 14.1341 12.703 14.387 12.4975 14.5362C12.292 14.6853 12.0197 14.7048 11.7951 14.5864L8.00021 12.5867L4.19614 14.5867C3.97152 14.7048 3.69934 14.6851 3.49404 14.536C3.28874 14.3868 3.18592 14.134 3.22883 13.8839L3.95552 9.64767L0.873553 6.64768C0.691622 6.47059 0.626073 6.20554 0.70449 5.96406C0.782907 5.72258 0.991677 5.54661 1.24294 5.51019L5.49592 4.89382L7.39807 1.03959C7.51038 0.812036 7.74213 0.667969 7.9959 0.667969Z" fill="#FDBC31"/>
</svg>
