<svg xmlns="http://www.w3.org/2000/svg" width="19.262" height="22.172" viewBox="0 0 19.262 22.172">
  <path id="Icon_simple-tiktok" data-name="Icon simple-tiktok" d="M12.485.018C13.7,0,14.9.009,16.1,0a5.754,5.754,0,0,0,1.617,3.852,6.515,6.515,0,0,0,3.917,1.654V9.229a9.888,9.888,0,0,1-3.88-.9,11.414,11.414,0,0,1-1.5-.859c-.009,2.7.009,5.4-.018,8.083a7.056,7.056,0,0,1-1.247,3.64,6.883,6.883,0,0,1-5.46,2.965,6.736,6.736,0,0,1-3.769-.952,6.966,6.966,0,0,1-3.372-5.275c-.018-.462-.028-.924-.009-1.376a6.955,6.955,0,0,1,8.065-6.171c.018,1.367-.037,2.734-.037,4.1A3.17,3.17,0,0,0,6.36,14.448a3.665,3.665,0,0,0-.129,1.487,3.144,3.144,0,0,0,3.233,2.651A3.1,3.1,0,0,0,12.023,17.1a2.131,2.131,0,0,0,.379-.979c.092-1.654.055-3.3.065-4.952.009-3.723-.009-7.437.018-11.15Z" transform="translate(-2.369)"/>
</svg>
